<svg xmlns="http://www.w3.org/2000/svg" xmlns:xlink="http://www.w3.org/1999/xlink" width="375" zoomAndPan="magnify" viewBox="0 0 281.25 281.249989" height="375" preserveAspectRatio="xMidYMid meet" version="1.0"><path fill="#2a1972" d="M 2.277344 131.183594 L 2.277344 148.136719 C 3.316406 149.773438 3.632812 159.558594 4.179688 162.222656 C 5.132812 166.839844 5.800781 170.921875 6.933594 175.457031 C 8.96875 183.605469 12.273438 192.332031 15.695312 199.160156 C 23.082031 213.902344 31.84375 225.863281 42.894531 236.898438 C 54.253906 248.246094 65.492188 256.480469 80.675781 264.066406 C 87.75 267.601562 95.851562 270.804688 104.3125 272.914062 C 108.960938 274.074219 112.710938 274.769531 117.644531 275.582031 C 118.917969 275.792969 132.121094 277.390625 132.246094 277.46875 L 149.703125 277.46875 C 150.003906 277.277344 174.214844 273.800781 177.527344 272.804688 C 186.691406 270.046875 193.515625 267.695312 201.429688 263.742188 C 216.367188 256.277344 228.121094 247.339844 239.300781 236.175781 C 258.859375 216.636719 278.703125 183.566406 278.703125 144.746094 L 278.703125 131.667969 C 278.703125 113.144531 271.75 91.621094 265.445312 79.03125 C 257.617188 63.402344 249.300781 52.652344 237.601562 40.964844 C 217.4375 20.824219 185.445312 1.367188 145.339844 1.367188 L 136.613281 1.367188 C 96.160156 1.367188 64.441406 20.410156 44.105469 40.722656 C 32.609375 52.203125 23.722656 63.203125 16.019531 78.546875 C 12.398438 85.765625 9.242188 94.125 7.128906 102.605469 C 6.003906 107.117188 4.992188 111.066406 4.164062 116.113281 C 3.832031 118.140625 2.820312 130.328125 2.277344 131.183594 Z M 2.277344 131.183594 " fill-opacity="1" fill-rule="evenodd"/><path fill="#fbfbfb" d="M 8.097656 134.574219 L 8.097656 146.683594 C 8.097656 164.988281 14.988281 184.269531 20.703125 197.0625 C 26.460938 209.953125 37.984375 224.246094 47.5 233.753906 C 66.761719 252.992188 97.816406 271.65625 136.125 271.65625 L 144.371094 271.65625 C 213.921875 271.65625 273.367188 211.398438 273.367188 141.839844 C 273.367188 99.429688 258.121094 69.207031 236.875 47.988281 C 225.28125 36.410156 215.027344 27.699219 199.492188 19.9375 C 187.210938 13.800781 165.296875 6.695312 147.28125 6.695312 L 138.550781 6.695312 C 69.070312 6.695312 8.097656 65.722656 8.097656 134.574219 Z M 8.097656 134.574219 " fill-opacity="1" fill-rule="evenodd"/><path fill="#2a1972" d="M 17.3125 140.871094 L 17.3125 141.839844 C 17.3125 206.746094 73.332031 262.449219 138.550781 262.449219 C 178.066406 262.449219 205.945312 248.179688 225.722656 228.421875 C 244.449219 209.714844 263.667969 181.808594 263.667969 144.746094 L 263.667969 136.027344 C 263.667969 99.007812 246.507812 70.6875 227.902344 52.109375 C 217.175781 41.394531 206.984375 34.40625 192.703125 27.203125 C 181.480469 21.542969 160.488281 15.898438 143.886719 15.898438 L 140.976562 15.898438 C 101.535156 15.898438 73.132812 32.554688 53.320312 52.347656 C 32.878906 72.765625 17.3125 100.160156 17.3125 140.871094 Z M 17.3125 140.871094 " fill-opacity="1" fill-rule="evenodd"/><path fill="#fbfbfb" d="M 52.714844 140.871094 C 52.714844 188.332031 92.601562 227.089844 140.492188 227.089844 L 145.339844 227.089844 C 170.210938 227.089844 191.03125 213.179688 203.65625 200.570312 C 216.503906 187.738281 228.753906 166.296875 228.753906 140.871094 L 228.753906 137.964844 C 228.753906 89.894531 188.566406 51.257812 140.003906 51.257812 L 138.550781 51.257812 C 111.808594 51.257812 91.15625 64.570312 77.566406 78.019531 C 63.320312 92.117188 52.714844 112.601562 52.714844 140.871094 Z M 52.714844 140.871094 " fill-opacity="1" fill-rule="evenodd"/><path fill="#2a1972" d="M 62.898438 139.417969 C 62.898438 181.808594 97.230469 216.917969 139.519531 216.917969 L 144.855469 216.917969 C 183.65625 216.917969 218.570312 180.011719 218.570312 140.386719 C 218.570312 96.628906 184.453125 61.429688 140.976562 61.429688 C 97.746094 61.429688 62.898438 96.1875 62.898438 139.417969 Z M 62.898438 139.417969 " fill-opacity="1" fill-rule="evenodd"/><path fill="#fbfbfb" d="M 102.664062 102.605469 L 102.664062 103.089844 C 102.664062 112.300781 115.488281 124.222656 123.515625 124.402344 L 123.515625 170.417969 L 130.304688 170.417969 L 130.339844 127.160156 L 135.640625 128.277344 L 135.640625 170.417969 L 142.914062 170.417969 L 142.914062 141.355469 L 150.675781 141.355469 C 158.742188 141.355469 165.222656 146.492188 165.222656 154.433594 L 165.222656 170.417969 L 172.496094 170.417969 L 172.496094 154.433594 C 172.496094 147.964844 169.269531 144.253906 166.675781 140.386719 C 168.367188 139.992188 170.421875 138.449219 171.527344 138.449219 C 172.84375 138.449219 176.792969 143.554688 177.640625 144.933594 C 179.070312 147.246094 180.257812 151.347656 180.257812 154.917969 L 180.257812 157.824219 C 180.257812 173.027344 158.226562 185.433594 141.460938 185.433594 L 137.578125 185.433594 C 129.246094 185.433594 120.203125 181.371094 115.066406 177.886719 C 111.082031 175.183594 101.820312 166.886719 100.722656 162.183594 L 100.335938 161.824219 L 92.964844 169.449219 C 99.171875 181.164062 118.617188 195.605469 136.609375 195.605469 L 143.882812 195.605469 C 164.292969 195.605469 190.925781 177.597656 190.925781 158.308594 L 190.925781 157.824219 C 190.925781 153.1875 188.882812 144.203125 187.382812 141.019531 C 184.003906 133.859375 181.167969 133.980469 178.316406 129.730469 C 179.136719 128.027344 180.257812 123.976562 180.257812 121.496094 C 180.257812 108.847656 170.886719 100.667969 157.949219 100.667969 L 135.640625 100.667969 L 135.625 117.6875 L 130.304688 116.652344 L 130.304688 100.667969 L 123.03125 100.667969 L 123.03125 113.261719 C 119.503906 112.441406 113.816406 108.222656 113.816406 104.058594 L 113.816406 103.089844 C 113.816406 95.429688 131.972656 92.917969 140.976562 92.917969 C 147.394531 92.917969 154.707031 94.566406 159.050781 96.910156 L 166.191406 88.558594 C 163.871094 88.015625 158.382812 85.605469 154.734375 84.503906 C 151.902344 83.644531 144.414062 82.746094 140.972656 82.746094 C 126.839844 82.742188 102.664062 90.09375 102.664062 102.605469 Z M 102.664062 102.605469 " fill-opacity="1" fill-rule="evenodd"/><path fill="#fbfbfb" d="M 68.71875 135.058594 L 68.71875 141.839844 C 68.71875 180.203125 102.226562 211.589844 140.976562 211.589844 C 167.261719 211.589844 192.253906 195.367188 201.039062 178.769531 L 192.863281 173.808594 C 190.703125 175.253906 186.710938 181.238281 184.265625 183.628906 C 181.3125 186.515625 177.363281 189.441406 173.953125 191.734375 C 168.230469 195.578125 155.757812 200.933594 146.308594 200.933594 L 134.671875 200.933594 C 119.933594 200.933594 104.398438 190.652344 96.714844 183.144531 C 89.242188 175.839844 78.902344 159.53125 78.902344 145.230469 L 78.902344 134.089844 C 78.902344 105.101562 108.4375 77.417969 138.550781 77.417969 L 143.402344 77.417969 C 152.929688 77.417969 161.453125 80.15625 167.972656 83.390625 C 171.125 84.957031 174.601562 87.125 177.265625 89.121094 C 180.082031 91.230469 183.238281 94.734375 185.496094 96.214844 L 192.382812 89.527344 C 191.355469 85.683594 176.734375 76.394531 172.335938 74.1875 C 164.914062 70.472656 154.699219 67.246094 143.886719 67.246094 L 135.640625 67.246094 C 102.101562 67.242188 68.71875 100.992188 68.71875 135.058594 Z M 68.71875 135.058594 " fill-opacity="1" fill-rule="evenodd"/><path fill="#2a1972" d="M 142.914062 119.558594 C 145.332031 119.609375 154.980469 121.582031 157.65625 122.269531 C 160.121094 122.902344 171.171875 126.339844 171.527344 126.339844 C 172.441406 126.339844 172.984375 124.550781 172.984375 123.433594 L 172.984375 120.527344 C 172.984375 113.59375 167.261719 107.933594 160.375 107.933594 L 142.914062 107.933594 Z M 142.914062 119.558594 " fill-opacity="1" fill-rule="evenodd"/><path fill="#2a1972" d="M 142.914062 134.574219 L 161.34375 134.574219 C 160.53125 132.335938 146.769531 130.214844 142.914062 130.214844 Z M 142.914062 134.574219 " fill-opacity="1" fill-rule="evenodd"/><path stroke-linecap="butt" transform="matrix(0.455892, 0, 0, 0.455357, 0.910726, 0.000916673)" fill-opacity="1" fill="#ffffff" fill-rule="nonzero" stroke-linejoin="miter" d="M 99.280394 301.117928 L 58.05799 299.676752 L 58.297904 292.87406 L 99.51174 294.306657 Z M 99.023343 287.624063 L 58.280768 281.173086 L 59.326108 274.610589 L 88.689895 265.251525 L 61.493904 260.945155 L 62.487835 254.665746 L 103.221842 261.116723 L 102.150796 267.893681 L 73.446774 277.141225 L 100.017273 281.344654 Z M 65.718108 243.814036 L 68.734173 231.727033 C 69.496757 228.673113 70.422141 226.4513 71.484618 225.061595 C 72.555664 223.67189 74.072264 222.530959 76.017283 221.630224 C 77.953733 220.712333 80.318602 220.214784 83.086184 220.103264 C 85.862334 220.000323 89.161155 220.429245 92.999782 221.390028 C 96.461402 222.25645 99.366077 223.388802 101.730946 224.812821 C 104.095815 226.23684 105.869466 227.738064 107.069038 229.307917 C 108.26004 230.886347 109.014056 232.610611 109.348223 234.497865 C 109.67382 236.393697 109.511022 238.66698 108.842689 241.352028 L 105.740941 253.790747 Z M 74.140811 238.907176 L 100.642764 245.512565 L 101.885177 240.537077 C 102.407847 238.409627 102.604919 236.81404 102.44212 235.767472 C 102.279322 234.703747 101.86804 233.777277 101.208276 232.962326 C 100.548512 232.147376 99.400351 231.323847 97.746656 230.491739 C 96.10153 229.651054 93.84805 228.887574 90.994785 228.175564 C 88.030131 227.429241 85.639557 227.05179 83.823063 227.034633 C 82.015138 227.026055 80.507106 227.317721 79.307535 227.943947 C 78.107964 228.561593 77.208286 229.445171 76.591363 230.611837 C 76.111535 231.478259 75.554591 233.236836 74.894827 235.896148 Z M 115.286099 221.201303 L 127.358926 198.494207 L 121.223976 195.234405 L 112.34715 211.928024 L 102.433552 206.66087 L 110.419268 191.648622 L 104.284319 188.38882 L 96.307171 203.401067 L 88.235771 199.103275 L 96.821273 182.950098 L 90.65205 179.673138 L 78.870549 201.839794 Z M 131.103301 193.861857 L 98.166506 169.035889 L 104.772716 160.268737 C 107.231836 157.008935 108.99692 154.993004 110.067965 154.229524 C 111.790207 153.002809 113.872319 152.50526 116.314303 152.711143 C 118.764856 152.925603 121.292523 154.015064 123.914443 155.988102 C 126.305017 157.789571 127.958711 159.745453 128.892663 161.855746 C 129.826615 163.966039 130.100802 165.939077 129.740931 167.783439 C 129.38106 169.619222 127.958711 172.19275 125.473885 175.486866 L 122.77485 179.06407 L 135.207548 188.423134 Z M 107.84019 167.800596 L 117.179708 174.843484 L 119.450325 171.832456 C 120.975494 169.807948 121.875172 168.32388 122.140791 167.388831 C 122.397842 166.453783 122.337864 165.467264 121.935151 164.446431 C 121.541006 163.417019 120.812695 162.499128 119.733081 161.692756 C 118.644899 160.869227 117.531011 160.405992 116.43426 160.320207 C 115.320373 160.243002 114.377853 160.457462 113.580995 160.963589 C 112.801274 161.478295 111.550292 162.876579 109.836619 165.149862 Z M 150.270733 168.761379 L 168.135774 150.257713 L 163.140418 145.428058 L 150.005114 159.033443 L 141.925146 151.235653 L 153.732353 139.002816 L 148.736996 134.181741 L 136.929789 146.405999 L 130.357853 140.057963 L 143.064739 126.898656 L 138.043677 122.051845 L 120.598486 140.109434 Z M 172.934059 146.611881 L 147.537425 114.108222 L 152.772696 110.016312 L 180.637019 123.201354 L 163.680225 101.497934 L 168.68415 97.586171 L 194.080783 130.081253 L 188.674145 134.310417 L 161.383903 121.502826 L 177.937984 142.700118 Z M 180.337126 90.877842 L 200.33569 126.958705 L 211.543111 120.739346 C 213.967958 119.401111 215.74161 117.968514 216.898339 116.432975 C 218.055068 114.897437 218.800516 113.173173 219.143251 111.22587 C 219.468849 109.269989 219.366028 106.953814 218.791948 104.260188 C 218.217867 101.557983 217.069706 98.658475 215.338897 95.535927 C 213.419583 92.070243 211.483133 89.368038 209.520977 87.412157 C 207.550253 85.456276 205.570961 84.075149 203.5831 83.277355 C 201.595239 82.470983 199.727336 82.145003 197.979389 82.307993 C 196.240011 82.470983 193.986531 83.311669 191.227518 84.847207 Z M 230.419219 111.834938 L 214.970457 73.592311 L 221.276774 71.044519 L 236.734104 109.287146 Z M 243.314608 106.97097 L 268.162867 100.314111 L 266.36351 93.597203 L 248.095756 98.495485 L 245.19108 87.652353 L 261.608067 83.25162 L 259.808711 76.54329 L 243.391724 80.944023 L 241.026855 72.108243 L 258.694823 67.38153 L 256.886898 60.630308 L 232.638426 67.132756 Z M 273.835124 100.065337 L 270.236411 58.98325 L 276.859757 58.399917 L 293.045398 84.632747 L 290.646256 57.190359 L 296.978278 56.64134 L 300.576991 97.732005 L 293.730867 98.323916 L 277.827982 72.717312 L 280.167146 99.516317 Z M 315.443104 97.877838 L 318.433464 63.744277 L 308.425613 62.869278 L 309.033967 55.920752 L 335.801539 58.262662 L 335.193185 65.211188 L 325.219609 64.344767 L 322.229249 98.478328 Z M 336.701218 99.88519 L 344.566977 59.395015 L 369.209594 64.181777 L 367.881498 71.03594 L 349.922205 67.54452 L 348.174258 76.517555 L 364.856865 79.7602 L 363.537337 86.58005 L 346.846162 83.337404 L 344.712639 94.352104 L 363.271717 97.963622 L 361.943621 104.79205 Z M 380.81116 108.643764 L 403.877199 74.450154 L 415.795794 82.48814 C 418.846132 84.546962 420.816856 86.331275 421.707966 87.823922 C 422.599076 89.316568 422.958947 91.109459 422.770443 93.185438 C 422.590508 95.278575 421.785081 97.371711 420.362733 99.482004 C 418.554808 102.149895 416.464127 103.882737 414.082121 104.646217 C 411.691547 105.409697 409.172448 105.203814 406.533392 104.037148 C 407.158882 105.727099 407.518754 107.348421 407.613006 108.918273 C 407.707258 110.488125 407.53589 113.070232 407.107472 116.673171 L 406.002153 125.637627 L 399.267418 121.091061 L 400.184233 110.874155 C 400.5184 107.202588 400.655493 104.834942 400.578378 103.796952 C 400.509831 102.767541 400.25278 101.926855 399.841499 101.266317 C 399.421649 100.614356 398.564812 99.850876 397.253853 98.967298 L 396.088555 98.178083 L 386.457713 112.452585 Z M 399.772952 92.713625 L 403.980019 95.553084 C 406.54196 97.277348 408.247065 98.272446 409.095333 98.52122 C 409.952169 98.769994 410.817574 98.692788 411.717253 98.306759 C 412.608362 97.912152 413.448062 97.148672 414.210647 96.016319 C 414.947526 94.926859 415.315966 93.897448 415.333103 92.953821 C 415.341671 91.993037 415.058915 91.143773 414.476266 90.388871 C 414.064985 89.865587 412.591226 88.741813 410.05499 87.034706 L 405.625145 84.049414 Z M 410.15781 125.757725 L 415.864341 129.472184 L 438.330594 94.875388 L 432.624063 91.169508 Z M 428.159945 137.83615 L 441.929307 97.122936 L 447.99571 101.369258 L 437.490894 131.282232 L 461.77364 111.019988 L 467.720086 115.180525 L 434.1578 142.031001 Z M 465.28667 171.455005 L 485.559421 133.066545 L 480.529791 127.868018 L 441.715098 147.049381 L 446.761865 152.273643 L 455.43305 147.76139 L 464.81541 157.47217 L 460.128514 166.110646 Z M 500.819679 149.760164 L 508.137063 159.839815 C 509.98783 162.387608 511.101717 164.523637 511.478725 166.230743 C 511.855733 167.93785 511.761481 169.833683 511.195969 171.909662 C 510.647594 173.977063 509.51657 176.113091 507.820034 178.30059 C 506.114929 180.496667 503.664377 182.744215 500.468376 185.068969 C 497.572269 187.170684 494.838961 188.66333 492.225609 189.564065 C 489.620826 190.456221 487.333073 190.850829 485.353781 190.756466 C 483.383057 190.662103 481.575132 190.130241 479.912869 189.169457 C 478.250606 188.200095 476.614048 186.613086 474.986059 184.382695 L 467.445898 174.002798 Z M 501.068162 228.861838 L 497.589406 222.30792 L 504.469803 215.290767 L 498.129213 203.375332 L 488.549781 205.314056 L 485.139572 198.905972 L 527.741482 191.168231 L 531.134555 197.55058 Z M 509.576548 210.100819 L 520.903927 198.811609 L 505.240956 201.951313 Z M 503.184548 237.52605 L 505.318071 244.526046 L 548.296989 244.028497 L 546.180603 237.08855 L 514.563337 238.109383 L 541.262362 221.003999 L 539.094566 213.926797 Z M 509.713642 259.152264 L 550.559038 253.413296 L 551.510126 260.15594 L 510.664731 265.894907 Z M 514.409106 302.996604 L 513.766479 295.602 L 522.848946 291.844649 L 521.666511 278.393675 L 512.087079 276.429216 L 511.45302 269.197602 L 553.695059 278.719656 L 554.32055 285.925534 Z M 529.566544 289.05666 L 544.41552 283.086075 L 528.769686 279.860586 Z M 529.566544 289.05666 " stroke="#ffffff" stroke-width="0.567" stroke-opacity="1" stroke-miterlimit="22.926001"/><path stroke-linecap="butt" transform="matrix(0.455892, 0, 0, 0.455357, 0.910726, 0.000916673)" fill-opacity="1" fill="#ffffff" fill-rule="nonzero" stroke-linejoin="miter" d="M 180.748408 527.210948 L 199.470285 490.460967 L 208.569888 495.093317 L 201.261073 522.94747 L 219.451712 500.634981 L 228.577021 505.284489 L 209.846575 542.034469 L 204.208591 539.160696 L 218.946178 510.234241 L 198.219304 536.106776 L 192.349974 533.121484 L 201.149684 501.166844 L 186.412097 530.093299 Z M 220.831219 545.654566 L 245.550951 552.740346 L 247.470265 546.057752 L 229.296763 540.842068 L 232.389943 530.058985 L 248.729815 534.742807 L 250.64056 528.06879 L 234.300688 523.384969 L 236.819788 514.592082 L 254.410641 519.636197 L 256.329955 512.927867 L 232.201439 506.005076 Z M 256.347091 555.5026 L 261.368153 514.566346 L 267.965794 515.372719 L 278.342084 544.393537 L 281.700883 517.05409 L 288.015768 517.834727 L 282.986138 558.77098 L 276.174288 557.938873 L 265.935092 529.578594 L 262.653408 556.274658 Z M 295.358857 518.435217 L 307.817259 518.435217 C 310.961849 518.435217 313.343855 518.795511 314.946139 519.490363 C 316.556992 520.193794 318.03075 521.386196 319.375984 523.058989 C 320.729785 524.714625 321.783694 526.884967 322.563415 529.54428 C 323.334568 532.220749 323.720145 535.523443 323.720145 539.478098 C 323.720145 543.046724 323.317432 546.143536 322.503437 548.785691 C 321.698011 551.419268 320.669807 553.495248 319.435962 555.047943 C 318.193549 556.583481 316.711222 557.732991 314.954707 558.513627 C 313.189624 559.294264 310.944713 559.680294 308.177131 559.680294 L 295.358857 559.680294 Z M 302.162139 525.418056 L 302.162139 552.731768 L 307.286021 552.731768 C 309.470954 552.731768 311.073238 552.525885 312.050032 552.114121 C 313.035394 551.702357 313.849388 551.076131 314.466311 550.244024 C 315.10037 549.403338 315.62304 548.090839 316.034321 546.289369 C 316.445603 544.487899 316.651244 542.120254 316.651244 539.169275 C 316.651244 536.115355 316.437035 533.704817 316.017185 531.937661 C 315.588766 530.179083 314.937571 528.789378 314.046461 527.785702 C 313.155351 526.764869 312.075737 526.095752 310.79905 525.786929 C 309.839394 525.538154 307.997195 525.418056 305.263887 525.418056 Z M 330.274944 538.071236 C 329.589475 533.19869 329.735137 529.098202 330.737636 525.744037 C 331.740134 522.39845 333.291008 519.78203 335.390258 517.911933 C 337.498076 516.050414 340.19711 514.883748 343.513068 514.420513 C 348.302784 513.742817 352.458441 515.021003 355.997175 518.25507 C 359.527342 521.497715 361.772253 526.498938 362.723342 533.258739 C 363.682999 540.087166 362.834731 545.654566 360.178537 549.943779 C 357.856511 553.744022 354.292071 555.974413 349.47665 556.64353 C 344.626955 557.329805 340.56555 556.180295 337.283866 553.220738 C 333.556628 549.823681 331.208896 544.770988 330.274944 538.071236 Z M 337.198183 536.818786 C 337.857947 541.511185 339.246022 544.908242 341.35384 547.001379 C 343.470226 549.103093 345.843663 549.969514 348.482719 549.600642 C 351.138912 549.223191 353.169615 547.747702 354.591964 545.174174 C 356.014312 542.600646 356.374183 538.903344 355.697283 534.065111 C 355.037519 529.329819 353.692285 525.949919 351.670151 523.916832 C 349.665154 521.892323 347.27458 521.077372 344.532703 521.463402 C 341.782258 521.849431 339.700145 523.299185 338.294933 525.829821 C 336.889722 528.360457 336.521282 532.023445 337.198183 536.818786 Z M 372.714055 552.036915 L 398.856137 543.544273 L 396.705477 536.930305 L 378.40345 542.875155 L 387.41737 510.697476 L 385.412372 504.538165 L 361.866505 512.190122 L 364.025733 518.829825 L 379.02894 513.957278 L 370.392028 544.891086 Z M 434.851838 526.945016 L 428.18565 530.204819 L 421.416642 523.076146 L 409.275269 528.99526 L 410.886121 538.637412 L 404.357027 541.820009 L 398.110689 498.979345 L 404.614078 495.805327 Z M 416.404148 517.791835 L 405.513756 506.073704 L 408.109971 521.840852 Z M 416.404148 517.791835 " stroke="#ffffff" stroke-width="0.216" stroke-opacity="1" stroke-miterlimit="22.926001"/><path fill="#2a1972" d="M 228.167969 72.570312 L 229 73.710938 C 229.734375 74.71875 230.183594 75.429688 230.347656 75.851562 C 230.574219 76.40625 230.621094 76.980469 230.484375 77.582031 C 230.351562 78.179688 230.011719 78.792969 229.476562 79.417969 C 228.9375 80.050781 228.105469 80.773438 226.980469 81.589844 C 225.890625 82.378906 224.964844 82.9375 224.191406 83.265625 C 223.414062 83.597656 222.789062 83.761719 222.3125 83.75 C 221.835938 83.742188 221.390625 83.613281 220.972656 83.359375 C 220.558594 83.109375 220.058594 82.574219 219.46875 81.769531 L 218.09375 79.878906 Z M 228.167969 72.570312 " fill-opacity="1" fill-rule="nonzero"/><path fill="#2a1972" d="M 215.019531 68.1875 L 218.570312 61.824219 L 212.097656 65.164062 Z M 215.019531 68.1875 " fill-opacity="1" fill-rule="nonzero"/><path fill="#2a1972" d="M 87.28125 42.664062 L 93.320312 53.542969 L 95.363281 52.410156 C 96.238281 51.925781 96.828125 51.492188 97.128906 51.113281 C 97.429688 50.730469 97.613281 50.304688 97.679688 49.832031 C 97.746094 49.359375 97.660156 48.722656 97.429688 47.910156 C 97.195312 47.105469 96.75 46.117188 96.101562 44.941406 C 95.425781 43.726562 94.808594 42.8125 94.25 42.203125 C 93.691406 41.59375 93.125 41.183594 92.546875 40.980469 C 91.964844 40.773438 91.390625 40.746094 90.808594 40.902344 C 90.371094 41.011719 89.613281 41.375 88.519531 41.980469 Z M 87.28125 42.664062 " fill-opacity="1" fill-rule="nonzero"/></svg>