<svg xmlns="http://www.w3.org/2000/svg" xmlns:xlink="http://www.w3.org/1999/xlink" width="375" zoomAndPan="magnify" viewBox="0 0 281.25 281.249989" height="375" preserveAspectRatio="xMidYMid meet" version="1.0"><defs><clipPath id="98385f9a8c"><path d="M 18.613281 0 L 261.71875 0 L 261.71875 280.503906 L 18.613281 280.503906 Z M 18.613281 0 " clip-rule="nonzero"/></clipPath></defs><g clip-path="url(#98385f9a8c)"><path fill="#000000" d="M 173.179688 9.636719 C 169.832031 8.417969 167.398438 5.375 166.179688 0.199219 L 114.457031 0.199219 C 113.242188 5.070312 111.113281 8.421875 107.457031 9.636719 C 89.8125 16.03125 73.6875 13.898438 59.691406 3.242188 L 18.613281 47.699219 C 23.789062 54.695312 26.832031 58.960938 28.050781 60.480469 C 40.519531 76.316406 43.867188 94.582031 38.089844 115.585938 C 36.566406 121.070312 34.738281 125.636719 32.917969 128.984375 C 24.699219 146.03125 20.746094 163.996094 21.65625 182.875 C 22.265625 203.273438 30.484375 218.496094 46.304688 227.933594 C 59.691406 236.15625 74.902344 243.769531 92.246094 251.074219 C 109.890625 258.078125 126.015625 267.515625 140.320312 280.300781 C 154.316406 267.816406 170.136719 258.078125 188.085938 251.074219 C 204.144531 244.644531 219.5625 236.929688 234.335938 227.933594 C 249.851562 218.496094 258.066406 203.277344 258.980469 182.875 C 259.585938 163.085938 255.9375 145.125 247.417969 128.984375 C 245.59375 125.636719 243.765625 121.070312 242.246094 115.585938 C 236.464844 94.582031 239.8125 76.316406 252.285156 60.480469 C 255.632812 56.523438 258.980469 52.265625 261.71875 47.699219 L 220.945312 3.242188 C 206.644531 13.898438 190.824219 16.03125 173.179688 9.636719 Z M 173.179688 9.636719 " fill-opacity="1" fill-rule="nonzero"/></g><path fill="#fde62f" d="M 256.847656 48 L 220.335938 8.421875 C 206.039062 18.160156 189.910156 19.683594 171.960938 13.292969 C 168.007812 12.074219 164.964844 9.027344 163.136719 3.855469 L 117.195312 3.855469 C 115.976562 8.722656 112.933594 11.769531 108.675781 13.292969 C 90.726562 19.683594 74.601562 17.859375 60.300781 8.421875 L 23.484375 48 L 31.089844 58.351562 C 44.476562 74.792969 48.128906 93.972656 41.738281 116.808594 C 40.519531 121.679688 38.695312 126.246094 36.261719 130.8125 L 36.566406 130.8125 C 28.65625 146.648438 24.699219 164 25.308594 182.570312 C 26.222656 201.449219 33.828125 215.757812 48.128906 224.890625 C 62.730469 233.722656 77.945312 241.03125 93.765625 247.421875 C 110.5 253.816406 126.015625 262.949219 140.316406 275.128906 C 154.617188 262.949219 170.132812 253.816406 186.867188 247.421875 C 203.296875 241.03125 218.210938 233.417969 232.203125 224.890625 C 246.804688 215.757812 254.414062 201.449219 255.023438 182.570312 C 255.933594 164 252.28125 146.953125 244.070312 130.8125 C 241.941406 125.941406 240.113281 121.375 238.898438 116.808594 C 232.507812 94.277344 236.160156 74.792969 249.546875 58.351562 Z M 256.847656 48 " fill-opacity="1" fill-rule="nonzero"/><path fill="#000000" d="M 219.730469 13.289062 L 251.980469 48.300781 L 246.503906 55.914062 C 232.507812 73.269531 228.550781 93.667969 235.246094 117.722656 C 236.160156 121.675781 237.984375 126.550781 240.722656 132.640625 C 248.328125 147.863281 251.980469 164.609375 251.371094 182.570312 C 250.460938 200.230469 243.460938 213.320312 230.074219 221.542969 L 223.6875 225.5 L 223.6875 114.066406 L 199.953125 114.066406 L 199.953125 237.679688 L 175.917969 248.03125 L 175.917969 114.066406 L 152.183594 114.066406 L 152.183594 261.425781 C 148.535156 263.863281 144.578125 266.601562 140.320312 270.257812 L 128.148438 261.425781 L 128.148438 114.066406 L 104.417969 114.066406 L 104.417969 247.726562 L 80.378906 237.679688 L 80.378906 114.066406 L 56.648438 114.066406 L 56.648438 225.5 L 50.257812 221.542969 C 36.871094 213.320312 29.875 200.230469 29.261719 182.570312 C 28.351562 164.609375 32.003906 147.863281 39.914062 132.640625 C 42.347656 127.765625 43.867188 122.898438 45.390625 117.722656 C 51.78125 93.671875 48.128906 73.269531 34.132812 55.914062 L 28.351562 48.304688 L 60.910156 13.289062 C 75.511719 22.121094 91.945312 23.339844 109.890625 16.945312 C 114.152344 15.730469 117.5 12.683594 119.929688 7.808594 L 160.703125 7.808594 C 162.832031 12.683594 166.179688 15.730469 170.742188 16.945312 L 170.441406 16.945312 C 188.695312 23.339844 205.125 22.121094 219.730469 13.289062 Z M 219.730469 13.289062 " fill-opacity="1" fill-rule="nonzero"/><path fill="#fde62f" d="M 79.464844 41.910156 L 88.59375 48.609375 L 85.246094 37.949219 L 94.375 31.253906 L 83.117188 31.253906 L 79.464844 20.597656 L 76.121094 31.253906 L 65.164062 31.253906 L 73.992188 37.949219 L 70.644531 48.609375 Z M 104.417969 37.949219 L 100.761719 48.609375 L 109.890625 41.910156 L 119.019531 48.609375 L 115.367188 37.949219 L 124.496094 31.253906 L 113.242188 31.253906 L 109.890625 20.597656 L 106.546875 31.253906 L 95.289062 31.253906 Z M 154.921875 31.253906 L 143.667969 31.253906 L 140.015625 20.597656 L 136.664062 31.253906 L 125.410156 31.253906 L 134.539062 37.949219 L 131.1875 48.609375 L 140.011719 41.910156 L 149.140625 48.609375 L 145.792969 37.949219 Z M 164.65625 37.949219 L 161.3125 48.609375 L 170.132812 41.910156 L 179.261719 48.609375 L 175.914062 37.949219 L 185.042969 31.253906 L 173.785156 31.253906 L 170.132812 20.597656 L 166.789062 31.253906 L 155.835938 31.253906 Z M 200.558594 41.910156 L 209.6875 48.609375 L 206.039062 37.949219 L 215.167969 31.253906 L 203.90625 31.253906 L 200.558594 20.597656 L 197.214844 31.253906 L 185.957031 31.253906 L 195.082031 37.949219 L 191.429688 48.609375 Z M 212.425781 58.960938 L 201.476562 58.960938 L 210.296875 65.65625 L 206.949219 76.316406 L 215.773438 69.617188 L 224.898438 76.316406 L 221.554688 65.65625 L 230.683594 58.960938 L 219.425781 58.960938 L 215.773438 48.300781 Z M 182.304688 58.960938 L 171.050781 58.960938 L 180.175781 65.65625 L 176.527344 76.316406 L 185.652344 69.617188 L 194.78125 76.316406 L 191.128906 65.65625 L 200.257812 58.960938 L 189 58.960938 L 185.652344 48.300781 Z M 170.132812 58.960938 L 158.878906 58.960938 L 155.226562 48.300781 L 151.878906 58.960938 L 140.925781 58.960938 L 149.75 65.65625 L 146.402344 76.316406 L 155.226562 69.617188 L 164.355469 76.316406 L 161.003906 65.65625 Z M 134.234375 76.316406 L 130.886719 65.65625 L 140.015625 58.960938 L 128.453125 58.960938 L 125.105469 48.300781 L 121.761719 58.960938 L 110.804688 58.960938 L 119.628906 65.65625 L 116.285156 76.316406 L 125.109375 69.617188 Z M 91.636719 58.960938 L 80.378906 58.960938 L 89.503906 65.65625 L 85.855469 76.316406 L 94.984375 69.617188 L 104.109375 76.316406 L 100.460938 65.65625 L 109.589844 58.960938 L 98.332031 58.960938 L 94.984375 48.300781 Z M 61.210938 58.960938 L 50.257812 58.960938 L 59.082031 65.65625 L 55.734375 76.316406 L 64.558594 69.617188 L 73.6875 76.316406 L 70.035156 65.65625 L 79.46875 58.960938 L 68.210938 58.960938 L 64.5625 48.300781 Z M 60.847656 88.433594 C 62.761719 88.433594 64.035156 88.492188 64.671875 88.597656 C 65.515625 88.738281 66.226562 89.121094 66.808594 89.753906 C 67.367188 90.371094 67.652344 91.152344 67.652344 92.105469 C 67.652344 92.875 67.449219 93.550781 67.050781 94.132812 C 66.632812 94.730469 66.078125 95.15625 65.390625 95.40625 C 64.683594 95.675781 63.285156 95.8125 61.191406 95.8125 L 58.28125 95.8125 L 58.28125 88.433594 Z M 58.28125 109.847656 L 58.28125 100.140625 L 61.734375 100.140625 C 64.132812 100.140625 65.964844 100.015625 67.230469 99.765625 C 68.160156 99.5625 69.074219 99.15625 69.976562 98.539062 C 70.878906 97.925781 71.621094 97.082031 72.203125 96.011719 C 72.789062 94.9375 73.082031 93.609375 73.082031 92.027344 C 73.082031 89.976562 72.574219 88.304688 71.5625 87.011719 C 70.550781 85.71875 69.292969 84.882812 67.792969 84.5 C 66.816406 84.238281 64.71875 84.109375 61.5 84.109375 L 53.011719 84.109375 L 53.011719 109.847656 Z M 77.417969 109.847656 L 77.417969 84.109375 L 96.824219 84.109375 L 96.824219 88.433594 L 82.6875 88.433594 L 82.6875 94.148438 L 95.824219 94.148438 L 95.824219 98.476562 L 82.6875 98.476562 L 82.6875 105.519531 L 97.324219 105.519531 L 97.324219 109.847656 Z M 101.824219 109.847656 L 101.824219 84.109375 L 106.9375 84.109375 L 117.792969 101.4375 L 117.792969 84.109375 L 122.671875 84.109375 L 122.671875 109.847656 L 117.394531 109.847656 L 106.703125 92.882812 L 106.703125 109.847656 Z M 107.722656 81.832031 L 105.449219 81.832031 C 105.4375 81.625 105.433594 81.417969 105.433594 81.210938 C 105.433594 79.984375 105.734375 79.042969 106.34375 78.382812 C 106.949219 77.722656 107.726562 77.394531 108.679688 77.394531 C 109.097656 77.394531 109.484375 77.4375 109.839844 77.527344 C 110.199219 77.617188 110.847656 77.867188 111.796875 78.277344 C 112.742188 78.6875 113.480469 78.890625 114.015625 78.890625 C 114.398438 78.890625 114.714844 78.773438 114.972656 78.535156 C 115.226562 78.296875 115.390625 77.898438 115.464844 77.339844 L 117.792969 77.339844 C 117.78125 78.9375 117.480469 80.078125 116.890625 80.757812 C 116.296875 81.4375 115.539062 81.777344 114.609375 81.777344 C 114.203125 81.777344 113.804688 81.738281 113.410156 81.664062 C 113.136719 81.589844 112.449219 81.339844 111.351562 80.914062 C 110.257812 80.492188 109.457031 80.277344 108.957031 80.277344 C 108.574219 80.277344 108.277344 80.394531 108.0625 80.625 C 107.847656 80.859375 107.734375 81.261719 107.722656 81.832031 Z M 134.988281 99.695312 L 138.535156 90.097656 L 142.195312 99.695312 Z M 141.347656 84.109375 L 135.6875 84.109375 L 125.589844 109.847656 L 131.238281 109.847656 L 133.390625 104.023438 L 143.933594 104.023438 L 146.195312 109.847656 L 151.867188 109.847656 Z M 159.941406 88.433594 L 164.074219 88.433594 C 166.21875 88.433594 167.507812 88.464844 167.941406 88.523438 C 168.796875 88.660156 169.464844 88.996094 169.933594 89.539062 C 170.40625 90.082031 170.640625 90.785156 170.640625 91.65625 C 170.640625 92.4375 170.460938 93.09375 170.101562 93.617188 C 169.734375 94.15625 169.242188 94.523438 168.617188 94.71875 C 167.984375 94.933594 166.398438 95.039062 163.859375 95.039062 L 159.941406 95.039062 Z M 159.941406 109.847656 L 159.941406 99.140625 L 161.015625 99.140625 C 162.234375 99.140625 163.121094 99.238281 163.683594 99.425781 C 164.246094 99.613281 164.777344 99.96875 165.277344 100.480469 C 165.78125 100.996094 166.710938 102.246094 168.074219 104.234375 L 171.855469 109.847656 L 178.179688 109.847656 L 174.984375 104.851562 C 173.730469 102.855469 172.730469 101.460938 171.992188 100.675781 C 171.25 99.890625 170.3125 99.171875 169.175781 98.515625 C 171.46875 98.195312 173.191406 97.402344 174.34375 96.140625 C 175.496094 94.882812 176.074219 93.285156 176.074219 91.347656 C 176.074219 89.816406 175.691406 88.460938 174.929688 87.277344 C 174.167969 86.097656 173.152344 85.273438 171.886719 84.804688 C 170.621094 84.339844 168.585938 84.105469 165.792969 84.105469 L 154.671875 84.105469 L 154.671875 109.847656 Z M 187.484375 90.359375 C 188.820312 88.890625 190.582031 88.15625 192.765625 88.15625 C 194.953125 88.15625 196.703125 88.886719 198.023438 90.339844 C 199.34375 91.796875 200.003906 93.996094 200.003906 96.945312 C 200.003906 99.929688 199.324219 102.167969 197.96875 103.664062 C 196.617188 105.164062 194.882812 105.910156 192.765625 105.910156 C 190.652344 105.910156 188.910156 105.15625 187.535156 103.648438 C 186.164062 102.136719 185.476562 99.929688 185.476562 97.015625 C 185.476562 94.046875 186.148438 91.828125 187.484375 90.359375 Z M 183.492188 106.847656 C 185.789062 109.183594 188.882812 110.347656 192.777344 110.347656 C 196.621094 110.347656 199.691406 109.175781 201.988281 106.828125 C 204.285156 104.484375 205.4375 101.234375 205.4375 97.078125 C 205.4375 92.875 204.277344 89.597656 201.960938 87.246094 C 199.648438 84.894531 196.5625 83.71875 192.703125 83.71875 C 190.574219 83.71875 188.691406 84.058594 187.0625 84.738281 C 185.835938 85.242188 184.707031 86.015625 183.679688 87.058594 C 182.65625 88.09375 181.84375 89.269531 181.242188 90.597656 C 180.445312 92.375 180.046875 94.578125 180.046875 97.203125 C 180.046875 101.300781 181.195312 104.511719 183.492188 106.847656 Z M 209.726562 109.847656 L 209.726562 84.332031 L 214.996094 84.332031 L 214.996094 105.523438 L 228.132812 105.523438 L 228.132812 109.851562 L 209.726562 109.851562 Z M 209.726562 109.847656 " fill-opacity="1" fill-rule="nonzero"/></svg>