<svg xmlns="http://www.w3.org/2000/svg" xmlns:xlink="http://www.w3.org/1999/xlink" width="375" zoomAndPan="magnify" viewBox="0 0 281.25 281.249989" height="375" preserveAspectRatio="xMidYMid meet" version="1.0"><path fill="#fcde00" d="M 101.664062 77.949219 L 89.617188 69.152344 L 77.566406 77.945312 L 82.210938 63.769531 L 70.125 55.027344 L 85.042969 55.0625 L 89.621094 40.871094 L 94.199219 55.066406 L 109.117188 55.035156 L 97.027344 63.773438 Z M 101.664062 77.949219 " fill-opacity="1" fill-rule="nonzero"/><path fill="#fcde00" d="M 157.582031 74.777344 L 140.246094 62.125 L 122.910156 74.773438 L 129.589844 54.378906 L 112.199219 41.800781 L 133.664062 41.851562 L 140.253906 21.425781 L 146.839844 41.851562 L 168.300781 41.808594 L 150.90625 54.382812 Z M 157.582031 74.777344 " fill-opacity="1" fill-rule="nonzero"/><path fill="#fcde00" d="M 202.925781 77.949219 L 190.878906 69.152344 L 178.828125 77.945312 L 183.472656 63.769531 L 171.386719 55.027344 L 186.304688 55.0625 L 190.882812 40.871094 L 195.460938 55.066406 L 210.375 55.035156 L 198.289062 63.773438 Z M 202.925781 77.949219 " fill-opacity="1" fill-rule="nonzero"/><path fill="#fcde00" d="M 70.125 81.523438 L 210.375 81.523438 L 210.375 219.628906 L 140.25 259.074219 L 70.125 219.628906 Z M 70.125 81.523438 " fill-opacity="1" fill-rule="nonzero"/><path fill="#ffffff" d="M 73.621094 114.882812 L 206.871094 114.882812 L 206.871094 217.550781 L 140.25 255.070312 L 73.621094 217.550781 Z M 73.621094 114.882812 " fill-opacity="1" fill-rule="nonzero"/><path fill="#df0214" d="M 73.621094 85.03125 L 118.039062 85.03125 L 118.039062 111.375 L 73.621094 111.375 Z M 73.621094 85.03125 " fill-opacity="1" fill-rule="nonzero"/><path fill="#ffffff" d="M 118.039062 85.03125 L 162.453125 85.03125 L 162.453125 111.375 L 118.039062 111.375 Z M 118.039062 85.03125 " fill-opacity="1" fill-rule="nonzero"/><path fill="#df0214" d="M 162.453125 85.03125 L 206.871094 85.03125 L 206.871094 111.375 L 162.453125 111.375 Z M 162.453125 85.03125 " fill-opacity="1" fill-rule="nonzero"/><path fill="#60c1ec" d="M 96.339844 114.882812 L 206.871094 114.882812 L 206.871094 177.171875 Z M 96.339844 114.882812 " fill-opacity="1" fill-rule="nonzero"/><path fill="#60c1ec" d="M 73.621094 167.6875 L 73.621094 217.550781 L 140.25 255.070312 L 184.480469 230.160156 Z M 73.621094 167.6875 " fill-opacity="1" fill-rule="nonzero"/><path fill="#60c1ec" d="M 160.132812 162.199219 C 156.757812 162.253906 153.371094 163.066406 150.425781 164.738281 C 147.015625 166.691406 144.410156 169.882812 142.863281 173.472656 C 141.957031 175.550781 141.40625 177.777344 141.183594 180.035156 C 140.746094 184.035156 140.90625 188.144531 142.058594 192.019531 C 142.847656 194.667969 144.148438 197.175781 145.953125 199.277344 C 148.269531 202.046875 151.535156 203.9375 155.011719 204.84375 C 156.972656 205.363281 159.011719 205.566406 161.039062 205.503906 C 164.34375 205.464844 167.695312 204.777344 170.582031 203.121094 C 173.292969 201.683594 175.417969 199.257812 176.636719 196.457031 C 177.039062 195.566406 177.316406 194.625 177.566406 193.683594 C 175.386719 193.289062 173.203125 192.890625 171.023438 192.496094 C 170.898438 192.953125 170.789062 193.410156 170.625 193.851562 C 170.589844 193.945312 170.519531 194.136719 170.464844 194.265625 C 169.695312 196.121094 168.261719 197.722656 166.414062 198.550781 C 163.054688 200.121094 159.070312 200.164062 155.609375 198.882812 C 153.273438 198.023438 151.363281 196.238281 150.097656 194.121094 C 148.730469 191.855469 148.015625 189.230469 147.839844 186.597656 C 147.792969 185.980469 147.753906 185.359375 147.734375 184.761719 C 147.714844 184.109375 147.710938 183.4375 147.730469 182.808594 C 147.808594 179.871094 148.335938 176.886719 149.726562 174.269531 C 150.648438 172.5625 151.914062 170.996094 153.558594 169.933594 C 154.457031 169.335938 155.492188 168.871094 156.492188 168.558594 C 159.339844 167.679688 162.460938 167.753906 165.289062 168.667969 C 167.734375 169.496094 169.84375 171.386719 170.742188 173.828125 C 170.792969 174.007812 170.855469 174.167969 171.066406 174.0625 C 173.160156 173.683594 175.25 173.300781 177.34375 172.921875 C 176.96875 171.894531 176.550781 170.875 175.96875 169.941406 C 174.046875 166.785156 170.917969 164.425781 167.417969 163.285156 C 165.070312 162.527344 162.597656 162.164062 160.132812 162.199219 Z M 160.132812 162.199219 " fill-opacity="1" fill-rule="nonzero"/><path fill="#60c1ec" d="M 118.484375 138.734375 C 115.359375 138.820312 112.1875 139.507812 109.5 141.15625 C 107.496094 142.398438 105.777344 144.191406 104.851562 146.382812 C 103.589844 149.378906 103.664062 152.953125 105.199219 155.839844 C 105.914062 157.183594 106.980469 158.332031 108.257812 159.15625 C 110.800781 160.875 113.769531 161.800781 116.726562 162.511719 C 120.019531 163.3125 123.402344 163.898438 126.519531 165.273438 C 128.304688 165.863281 129.78125 167.460938 130.023438 169.351562 C 130.078125 169.828125 130.046875 170.308594 130.039062 170.785156 C 129.9375 172.371094 128.976562 173.785156 127.734375 174.726562 C 126.8125 175.449219 125.710938 175.902344 124.578125 176.179688 C 123.402344 176.488281 122.191406 176.664062 120.972656 176.707031 C 120.859375 176.710938 120.644531 176.71875 120.492188 176.71875 C 117.820312 176.742188 115.132812 176.109375 112.796875 174.800781 C 111.078125 173.785156 109.855469 172.054688 109.277344 170.160156 C 109.234375 169.976562 109.183594 169.808594 108.96875 169.921875 C 106.949219 170.285156 104.933594 170.652344 102.914062 171.019531 C 103.242188 172.355469 103.660156 173.675781 104.300781 174.894531 C 105.035156 176.320312 106.050781 177.597656 107.230469 178.679688 C 109.273438 180.519531 111.882812 181.621094 114.550781 182.191406 C 116.988281 182.710938 119.496094 182.84375 121.980469 182.746094 C 125.042969 182.589844 128.128906 181.800781 130.707031 180.101562 C 131.429688 179.613281 132.128906 179.078125 132.769531 178.484375 C 135.519531 175.898438 136.914062 171.953125 136.394531 168.210938 C 136.25 166.015625 135.203125 163.949219 133.710938 162.359375 C 132.535156 161.097656 131.09375 160.097656 129.519531 159.402344 C 126.203125 157.863281 122.589844 157.171875 119.058594 156.328125 C 117.953125 156.066406 116.8125 155.773438 115.746094 155.449219 C 115.34375 155.328125 114.988281 155.214844 114.585938 155.078125 C 113.785156 154.820312 112.980469 154.53125 112.28125 154.050781 C 111.355469 153.445312 110.578125 152.496094 110.464844 151.363281 C 110.398438 150.777344 110.347656 150.179688 110.480469 149.597656 C 110.839844 147.875 112.179688 146.464844 113.769531 145.773438 C 115.21875 145.195312 116.769531 144.898438 118.320312 144.796875 C 119.328125 144.734375 120.34375 144.765625 121.34375 144.882812 C 121.511719 144.902344 121.765625 144.9375 121.964844 144.964844 C 122.941406 145.128906 123.921875 145.328125 124.847656 145.691406 C 126.789062 146.492188 128.226562 148.285156 128.789062 150.285156 C 128.867188 150.394531 128.824219 150.707031 128.992188 150.667969 C 131.101562 150.285156 133.207031 149.902344 135.3125 149.519531 C 135 148.363281 134.617188 147.226562 134.128906 146.132812 C 132.976562 143.824219 130.996094 142 128.722656 140.820312 C 126.242188 139.519531 123.453125 138.890625 120.664062 138.777344 C 119.9375 138.726562 119.210938 138.714844 118.484375 138.734375 Z M 118.484375 138.734375 " fill-opacity="1" fill-rule="nonzero"/></svg>