<svg xmlns="http://www.w3.org/2000/svg" xmlns:xlink="http://www.w3.org/1999/xlink" width="500" zoomAndPan="magnify" viewBox="0 0 375 374.999991" height="500" preserveAspectRatio="xMidYMid meet" version="1.2"><g id="5c428dc181"><path style=" stroke:none;fill-rule:nonzero;fill:#231f20;fill-opacity:1;" d="M 187.5 -0.0351562 C 84.089844 -0.0351562 -0.0351562 84.089844 -0.0351562 187.5 C -0.0351562 290.910156 84.089844 375.035156 187.5 375.035156 C 290.910156 375.035156 375.035156 290.90625 375.035156 187.5 C 375.035156 84.089844 290.910156 -0.0351562 187.5 -0.0351562 Z M 187.628906 295.386719 C 181.753906 295.386719 176.546875 293.453125 172.15625 289.640625 C 167.632812 285.726562 165.34375 280.246094 165.34375 273.359375 C 165.34375 267.214844 167.527344 261.972656 171.828125 257.765625 C 176.113281 253.578125 181.429688 251.457031 187.625 251.457031 C 193.753906 251.457031 198.988281 253.585938 203.195312 257.789062 C 207.398438 261.996094 209.527344 267.230469 209.527344 273.359375 C 209.527344 280.148438 207.265625 285.597656 202.808594 289.558594 C 198.460938 293.421875 193.351562 295.386719 187.628906 295.386719 Z M 250.707031 171.613281 C 247.667969 177.253906 243.996094 182.199219 239.785156 186.324219 C 235.777344 190.242188 228.492188 196.9375 218.125 206.207031 C 215.386719 208.699219 213.152344 210.9375 211.492188 212.835938 C 209.9375 214.621094 208.777344 216.242188 208.054688 217.652344 C 207.308594 219.117188 206.722656 220.585938 206.320312 222.019531 C 205.875 223.582031 205.210938 226.359375 204.269531 230.527344 C 202.421875 240.652344 196.175781 246.066406 186.238281 246.066406 C 181.058594 246.066406 176.621094 244.335938 173.054688 240.910156 C 169.449219 237.464844 167.621094 232.421875 167.621094 225.933594 C 167.621094 218.476562 168.8125 211.882812 171.152344 206.339844 C 173.46875 200.855469 176.597656 195.960938 180.449219 191.796875 C 184.136719 187.804688 189.152344 183.03125 195.347656 177.597656 C 200.703125 172.914062 204.585938 169.367188 206.894531 167.050781 C 209.089844 164.859375 210.960938 162.386719 212.457031 159.695312 C 213.855469 157.183594 214.539062 154.527344 214.539062 151.570312 C 214.539062 145.664062 212.402344 140.816406 207.996094 136.742188 C 203.523438 132.609375 197.855469 130.601562 190.660156 130.601562 C 182.308594 130.601562 176.164062 132.636719 172.402344 136.65625 C 168.34375 140.988281 164.824219 147.566406 161.941406 156.210938 C 157.875 169.730469 149.246094 172.589844 142.730469 172.589844 C 137.171875 172.589844 132.414062 170.601562 128.585938 166.671875 C 124.78125 162.765625 122.847656 158.410156 122.847656 153.722656 C 122.847656 145.167969 125.601562 136.429688 131.03125 127.757812 C 136.425781 119.128906 144.375 111.902344 154.667969 106.273438 C 164.945312 100.652344 177.054688 97.804688 190.664062 97.804688 C 203.289062 97.804688 214.632812 100.183594 224.367188 104.875 C 234.183594 109.601562 241.890625 116.15625 247.28125 124.347656 C 252.695312 132.582031 255.4375 141.65625 255.4375 151.324219 C 255.4375 158.960938 253.84375 165.796875 250.707031 171.613281 Z M 250.707031 171.613281 "/></g></svg>